# xmcd CD database file
#
# Track frame offsets:
#	150
#	11565
#	23470
#	35040
#	48430
#	61890
#	76035
#	89105
#	102335
#	114635
#	127575
#	138055
#	150360
#	163320
#	181280
#	191830
#	203340
#	215230
#
# Disc length: 3026 seconds
#
# Revision: 0
# Processed by: cddbd v1.5.1PL0 Copyright (c) Steve Scherf et al.
# Submitted via: CDex 1.51
#
DISCID=e80bd012
DTITLE=Fred Astair - Fascinating Rhythm disc 2
DYEAR=1900
DGENRE=Jazz
TTITLE0=I'd rather lead a band
TTITLE1=Let yourself go
TTITLE2=Let's face the music
TTITLE3=Pick yourself up
TTITLE4=A fine romance
TTITLE5=Bojangles of Harlem
TTITLE6=(I've got) beginners' luck
TTITLE7=Slap that bass
TTITLE8=Nice work if you can get it
TTITLE9=The yam step
TTITLE10=The astairable rag
TTITLE11=I can't tell a lie
TTITLE12=You're easy to dance with
TTITLE13=The shorty george
TTITLE14=A cople of song and dance men
TTITLE15=Steppin' out with my baby
TTITLE16=It only happens when I dance with you
TTITLE17=A couple of swells
EXTD=
EXTT0=
EXTT1=
EXTT2=
EXTT3=
EXTT4=
EXTT5=
EXTT6=
EXTT7=
EXTT8=
EXTT9=
EXTT10=
EXTT11=
EXTT12=
EXTT13=
EXTT14=
EXTT15=
EXTT16=
EXTT17=
PLAYORDER=
